<svg height="420pt" viewBox="0 -92 420.1 420" width="420pt" xmlns="http://www.w3.org/2000/svg" xmlns:xlink="http://www.w3.org/1999/xlink"><linearGradient id="a"><stop offset=".322" stop-color="#a163f5"/><stop offset=".466" stop-color="#b074ee"/><stop offset=".752" stop-color="#d8a1dd"/><stop offset=".898" stop-color="#efbad3"/></linearGradient><linearGradient id="b" gradientTransform="matrix(1 0 0 -1 -46 375.95)" gradientUnits="userSpaceOnUse" x1="256.05" x2="256.05" xlink:href="#a" y1="63" y2="402.158"/><linearGradient id="c" gradientTransform="matrix(1 0 0 -1 -46 375.95)" gradientUnits="userSpaceOnUse" x1="348.1" x2="348.1" xlink:href="#a" y1="63" y2="402.158"/><path d="m302.101562.0507812h-184.203124c-65.113282 0-117.898438 52.7851568-117.898438 117.8984378s52.785156 117.902343 117.898438 117.902343h184.300781c65.082031-.082031 117.820312-52.820312 117.902343-117.902343 0-65-53-117.8984378-118-117.8984378zm0 215.8007808h-184.203124c-54.066407 0-97.898438-43.832031-97.898438-97.902343 0-54.066407 43.832031-97.898438 97.898438-97.898438h184.300781c54.070312.027344 97.878906 43.878907 97.851562 97.949219-.027343 54.070312-43.882812 97.878906-97.949219 97.851562zm0 0" fill="url(#b)"/><path d="m302.101562 42.949219c-41.421874 0-75 33.578125-75 75s33.578126 75 75 75c41.417969 0 75-33.578125 75-75-.050781-41.398438-33.601562-74.949219-75-75zm0 130c-30.378906 0-55-24.625-55-55s24.621094-55 55-55c30.375 0 55 24.625 55 55-.054687 30.355469-24.648437 54.945312-55 55zm0 0" fill="url(#c)"/></svg>